<?xml version="1.0" encoding="utf-8"?>
<!-- Generator: Adobe Illustrator 27.5.0, SVG Export Plug-In . SVG Version: 6.00 Build 0)  -->
<svg version="1.1" id="Layer_1" xmlns="http://www.w3.org/2000/svg" xmlns:xlink="http://www.w3.org/1999/xlink" x="0px" y="0px"
	 viewBox="0 0 4000 4000" style="enable-background:new 0 0 4000 4000;" xml:space="preserve">
<g>
	<g>
		<g>
			<rect style="fill:#FFCAEC;" width="4000" height="4000"/>
		</g>
	</g>
	<g>
		<g>
			<g style="opacity:0.18;">
				<g>
					<path style="fill-rule:evenodd;clip-rule:evenodd;fill:#000071;" d="M2111.899,3147.555
						c460.989,0,834.702,69.711,834.702,155.703c0,86.003-373.713,155.715-834.702,155.715
						c-461.001,0-834.702-69.711-834.702-155.715C1277.197,3217.267,1650.897,3147.555,2111.899,3147.555"/>
				</g>
			</g>
			<g>
				<g>
					<path style="fill-rule:evenodd;clip-rule:evenodd;fill:#FFFFFF;" d="M1585.452,3142.159
						c-120.815-94.076-155.046-325.897-102.677-695.479C354.262,2342.381,818.077,855.028,1748.038,1019.318
						c248.003,43.818,460.178,167.329,637.886,363.166c51.607-153.27,5.808-326.422-137.371-519.455
						c151.469,18.236,225.534,238.318,293.694,650.504c74.291,449.304-47.337,734.231-293.682,839.997
						c385.84,76.343,616.74,233.213,631.589,476.864c21.646,355.535-161.689,515.424-487.896,472.083
						c-53.097-7.062-83.869-32.357-93.148-70.273c-34.599,7.372-70.378,7.372-104.99,0c-23.734,63.356-83.749,94.77-179.999,96.296
						c-104.858,1.671-164.85-16.065-180.009-55.268c-94.137,56.045-336.297,62.342-325.98-55.899
						C1511.686,3176.568,1544.592,3144.58,1585.452,3142.159z"/>
				</g>
			</g>
			<g>
				<g>
					<path style="fill-rule:evenodd;clip-rule:evenodd;fill:#FC9B28;" d="M2577.681,2455.624
						c180.964,85.061,287.16,205.377,301.542,362.702c-82.281,34.885-193.426-1.776-265.643-93.541
						C2544.967,2637.577,2533.004,2527.913,2577.681,2455.624"/>
				</g>
			</g>
			<g>
				<g>
					<path style="fill:#000071;" d="M2000.873,3352.057c-91.196,0-148.076-15.439-175.425-47.988
						c-82.261,37.158-223.076,45.713-293.936,1.245c-33.862-21.25-50.024-52.378-46.738-90.015
						c3.135-36.035,24.634-67.046,54.893-83.691c-101.006-110.498-128.32-328.672-83.433-664.067
						c-152.993-17.148-283.34-60.659-387.72-129.482c-100.835-66.479-175.244-154.658-221.152-262.085
						c-51.148-119.678-64.014-258.362-37.212-401.062c25.977-138.301,87.1-271.118,176.768-384.092
						c87.891-110.732,199.805-196.694,323.638-248.591c138.115-57.883,286.68-73.364,441.558-46.001
						c235.981,41.694,445.171,155.913,622.353,339.683c29.272-135.628-19.292-289.775-144.746-458.911
						c-5.581-7.524-6.147-17.646-1.445-25.747c4.707-8.098,13.789-12.622,23.081-11.504c83.32,10.032,145.884,70.94,196.885,191.68
						c43.242,102.366,79.37,249.873,117.139,478.281c36.802,222.566,27.471,411.238-27.739,560.771
						c-45.132,122.256-118.838,214.15-219.57,273.999c168.599,39.204,302.705,94.878,399.297,165.85
						c115.85,85.122,178.496,192.329,186.191,318.643c11.152,183.12-29.946,319.497-122.144,405.342
						c-89.507,83.35-221.479,114.092-392.251,91.411c-51.626-6.87-88.291-30.381-105.493-67.031
						c-25.142,3.438-50.43,3.369-75.571-0.205c-31.187,60.498-96.196,91.914-193.608,93.462
						C2009.872,3352.023,2005.331,3352.057,2000.873,3352.057z M1834.111,3249.786c2.578,0,5.161,0.425,7.651,1.284
						c6.528,2.251,11.729,7.266,14.219,13.706c6.138,15.879,34.844,42.344,157.769,40.278
						c86.67-1.377,138.491-27.896,158.413-81.079c4.072-10.869,15.459-17.109,26.846-14.707c31.587,6.729,63.628,6.729,95.215,0
						c12.417-2.656,24.653,5.054,27.666,17.363c7.188,29.375,31.899,47.075,73.457,52.603
						c156.211,20.762,275.352-5.903,354.111-79.243c81.45-75.84,117.549-199.712,107.295-368.169
						c-6.812-111.758-63.052-207.212-167.153-283.701c-103.101-75.757-253.018-133.486-445.586-171.587
						c-10.083-1.997-17.69-10.322-18.77-20.542s4.624-19.951,14.067-24.009c249.575-107.148,348.945-396.457,279.8-814.624
						c-50.269-304.006-106.802-526.177-206.382-602.815c111.279,173.291,143.389,332.942,95.415,475.422
						c-2.651,7.881-9.282,13.767-17.422,15.469c-8.164,1.714-16.577-1.038-22.163-7.195
						c-176.025-193.987-386.172-313.706-624.604-355.833c-278.677-49.226-541.211,51.934-720.298,277.566
						c-174.326,219.634-227.842,516.04-133.169,737.566c63.096,147.642,217.446,330.947,594.448,365.791
						c6.392,0.591,12.256,3.774,16.235,8.809c3.98,5.034,5.723,11.479,4.824,17.832c-50.864,358.921-19.282,585.581,93.867,673.687
						c7.7,5.996,10.879,16.138,7.983,25.459s-11.26,15.874-21.006,16.45c-29.033,1.719-52.822,24.849-55.347,53.804
						c-1.724,19.771,6.201,34.453,24.946,46.216c60.234,37.793,203.042,24.79,265.674-12.5
						C1825.785,3250.9,1829.936,3249.786,1834.111,3249.786z"/>
				</g>
			</g>
			<g style="opacity:0.3;">
				<g>
					<path style="fill-rule:evenodd;clip-rule:evenodd;fill:#000071;" d="M1395.617,1900.907
						c-59.074,109.606-47.994,192.295-4.463,212.783c85.324,40.158,67.149-102.342,136.286-168.702
						c-25.987-23.578-42.076-57.237-42.887-93.981C1468.083,1885.057,1432.268,1904.534,1395.617,1900.907"/>
				</g>
			</g>
			<g>
				<g>
					<path style="fill-rule:evenodd;clip-rule:evenodd;fill:#FC9B28;" d="M1058.496,1244.803
						c164.994-171.577,405.435-275.673,689.542-225.485c33.835,5.974,67.005,13.451,99.504,22.374
						c-45.501,108.329-138.873,206.081-266.024,264.151C1389.151,1393.72,1178.693,1363.713,1058.496,1244.803"/>
				</g>
			</g>
			<g>
				<g>
					<path style="fill-rule:evenodd;clip-rule:evenodd;fill:#FC9B28;" d="M2037.176,1536.946
						c98.167,71.837,111.753,228.934,30.354,350.897c-81.389,121.985-226.94,162.632-325.11,90.798
						c-98.167-71.836-111.753-228.922-30.366-350.885C1793.443,1505.771,1938.996,1465.112,2037.176,1536.946"/>
				</g>
			</g>
			<g>
				<g>
					<path style="fill:#000071;" d="M2538.467,3097.349c-30.488,5.266-59.683,6.238-88.411,9.033
						c-28.53,2.93-56.768,8.936-80.425,21.064c-5.84,3.066-11.443,6.421-16.504,10.195l-3.86,2.754l-3.538,3.025
						c-2.488,1.912-4.451,4.224-6.658,6.343c-8.235,8.899-14.141,19.326-17.224,30.896c-2.925,11.587-3.794,24.163-2.078,37.104
						c1.643,12.917,5.427,25.996,10.388,38.911l0.513,1.338c3.479,9.055-1.042,19.216-10.098,22.693
						c-8.909,3.423-18.896-0.92-22.529-9.683c-6.26-15.139-10.994-31.201-13.13-47.996c-2.246-16.726-1.401-34.382,3.445-51.235
						c4.814-16.841,14.133-32.463,26.099-44.749c12.056-12.275,26.328-21.489,41.138-28.269
						c29.829-13.464,61.37-18.23,92.246-20.039c30.979-1.528,61.694,0.386,92.009,4.021c3.962,0.474,6.787,4.07,6.313,8.03
						c-0.388,3.245-2.871,5.728-5.933,6.26L2538.467,3097.349z"/>
				</g>
			</g>
			<g>
				<g>
					<path style="fill:#000071;" d="M2500.381,2695.962c-32.703,19.014-60.681,45.657-81.111,77.043
						c-20.476,31.365-33.35,67.385-37.463,104.233c-4.148,36.848,0.471,74.434,13.232,108.848
						c12.717,34.438,33.533,65.608,60.12,90.366c7.109,6.621,7.507,17.751,0.886,24.863c-6.621,7.109-17.751,7.505-24.861,0.884
						c-0.161-0.149-0.32-0.3-0.471-0.454l-0.098-0.098c-29.385-29.717-51.548-66.243-64.275-105.649
						c-12.788-39.392-16.13-81.599-9.858-122.156c6.226-40.569,22.043-79.426,45.659-112.534
						c23.567-33.145,54.883-60.483,90.52-79.282c3.892-2.053,8.711-0.564,10.764,3.328
						C2505.425,2689.146,2504.048,2693.823,2500.381,2695.962z"/>
				</g>
			</g>
			<g>
				<g>
					<path style="fill:#000071;" d="M2313.149,2670.559c-2.886,51.685-6.719,103.35-12.021,154.937
						c-5.271,51.587-12.358,103.057-21.509,154.277c-9.226,51.206-20.696,102.17-35.942,152.349
						c-15.181,50.166-34.858,99.446-61.086,146.101c-4.761,8.469-15.486,11.475-23.955,6.714s-11.475-15.486-6.714-23.955
						c0.083-0.146,0.168-0.293,0.254-0.437l0.22-0.361c25.847-42.61,46.418-89.146,62.737-137.314
						c16.414-48.174,29.353-97.769,40.117-147.896c10.696-50.154,19.417-100.85,26.35-151.846
						c6.965-50.991,12.495-102.227,17.08-153.579l0.005-0.037c0.356-3.992,3.879-6.936,7.869-6.58
						C2310.457,2663.281,2313.359,2666.675,2313.149,2670.559z"/>
				</g>
			</g>
			<g>
				<g>
					<path style="fill:#000071;" d="M1814.204,3278.198c-2.864-14.053-4.575-28.65-4.128-43.608
						c0.454-14.91,3.047-30.247,8.87-44.602c5.913-14.275,14.697-27.454,25.615-37.766c10.84-10.425,23.186-18.467,35.916-24.719
						c25.591-12.446,52.483-18.34,79.05-22.1c26.643-3.66,53.252-4.614,79.702-4.482c3.14,0.017,5.671,2.573,5.657,5.713
						c-0.015,2.739-1.965,5.017-4.546,5.542l-0.684,0.137c-12.91,2.632-25.786,4.519-38.423,7.505
						c-12.659,2.622-25.227,5.286-37.424,8.84c-24.309,7.021-48.071,15.195-67.715,27.515
						c-19.78,12.158-34.202,28.005-40.701,46.936c-3.401,9.48-4.829,19.978-4.727,30.947c-0.361,11.011,1.348,22.476,3.352,34.211
						l0.41,2.4c1.904,11.143-5.583,21.716-16.726,23.621C1826.79,3296.152,1816.411,3288.967,1814.204,3278.198z"/>
				</g>
			</g>
			<g>
				<g>
					<path style="fill:#000071;" d="M1871.594,2679.302c19.033,73.228,36.067,147.151,47.559,222.432
						c5.735,37.632,10.107,75.603,11.995,113.999c1.953,38.372,1.047,77.285-5.105,116.421c-1.509,9.6-10.513,16.157-20.112,14.648
						s-16.157-10.515-14.648-20.112c0.037-0.234,0.078-0.466,0.125-0.696l0.076-0.374c7.131-35.2,9.768-72.083,9.485-109.106
						c-0.186-37.053-2.805-74.329-6.812-111.521c-8.025-74.436-21.667-148.523-37.388-222.146l-0.007-0.034
						c-0.881-4.119,1.746-8.169,5.862-9.048C1866.626,2672.91,1870.569,2675.383,1871.594,2679.302z"/>
				</g>
			</g>
			<g>
				<g>
					<path style="fill:#000071;" d="M1844.125,3194.293c-2.095,0-4.219-0.376-6.294-1.172
						c-262.876-100.82-388.247-352.192-372.627-747.134c0.376-9.468,8.169-16.895,17.559-16.895c0.239,0,0.474,0.005,0.708,0.015
						c9.707,0.386,17.266,8.564,16.88,18.267c-14.961,378.223,102.822,618.076,350.078,712.905
						c9.068,3.477,13.599,13.647,10.122,22.72C1857.865,3189.996,1851.2,3194.293,1844.125,3194.293z"/>
				</g>
			</g>
			<g>
				<g>
					<path style="fill:#000071;" d="M1519.939,3149.39c9.883-6.614,20.698-12.205,32.18-16.03
						c11.479-3.823,23.569-5.776,35.391-5.737c11.836,0.012,23.34,1.956,34.094,5.2c10.774,3.247,20.837,7.751,30.283,12.954
						c3.738,2.061,5.1,6.763,3.04,10.503c-1.279,2.319-3.572,3.723-6.023,3.965l-3.462,0.315
						c-11.108,1.011-20.693,0.823-29.729,1.355c-8.999,0.557-17.18,0.862-24.998,2.334c-7.791,1.479-15.142,3.574-22.456,6.538
						c-7.373,2.849-14.592,6.65-22.578,10.562l-5.72,2.8c-9.968,4.883-22.012,0.759-26.895-9.211
						C1508.586,3165.789,1511.694,3154.895,1519.939,3149.39z"/>
				</g>
			</g>
			<g>
				<g>
					<g>
						<path style="fill:#000071;" d="M1500.878,2432.414c0,0,63.627,10.987,127.268,21.959c31.736,4.614,63.568,8.564,87.554,11.83
							c24.008,3.173,40.014,5.295,40.014,5.295s-16.126,0.811-40.3,2.027c-24.201,1.121-56.653,3.019-89.13,4.223
							c-64.557,0.704-129.13,1.419-129.13,1.419c-13,0.156-23.674-10.257-23.83-23.256c-0.166-13.002,10.247-23.676,23.258-23.83
							C1497.99,2432.057,1499.529,2432.202,1500.878,2432.414z"/>
					</g>
				</g>
			</g>
			<g>
				<g>
					<g>
						<path style="fill:#000071;" d="M2257.175,2375.346c0,0-16.529,4.961-41.326,12.416c-12.403,3.72-26.871,8.061-42.386,12.701
							c-15.85,4.138-32.762,8.552-49.675,12.963c-16.746,4.699-33.813,8.302-49.829,11.451c-16.055,2.995-30.618,6.966-43.676,8.278
							c-25.737,3.315-42.889,5.521-42.889,5.521s16.47-5.056,41.16-12.64c12.342-3.4,26.167-9.829,41.194-15.386
							c15.002-5.713,30.877-12.01,46.358-19.382c15.53-7.025,31.057-14.05,45.62-20.633c14.492-7.203,28.004-13.918,39.597-19.668
							c23.173-11.544,38.63-19.25,38.63-19.25c11.641-5.784,25.762-1.06,31.558,10.579c5.796,11.629,1.063,25.762-10.567,31.558
							C2259.764,2374.44,2258.391,2374.963,2257.175,2375.346z"/>
					</g>
				</g>
			</g>
			<g>
				<g>
					<path style="fill-rule:evenodd;clip-rule:evenodd;fill:#FD73CB;" d="M1867.341,1047.32
						c197.468,58.334,370.071,171.494,518.583,335.164c51.607-153.27,5.808-326.422-137.371-519.455
						C2234.371,850.531,2093.387,870.651,1867.341,1047.32z"/>
				</g>
			</g>
			<g style="opacity:0.6;">
				<g>
					<path style="fill-rule:evenodd;clip-rule:evenodd;fill:#FFFFFF;" d="M1894.068,1026.878l-4.973,3.735l-1.981,1.502
						l-2.193,1.668l34.145,30.259c106.387-88.805,209.278-152.769,317.932-182.644
						C2126.352,884.976,2015.134,936.547,1894.068,1026.878"/>
				</g>
			</g>
			<g>
				<g>
					<path style="fill:#000071;" d="M2385.922,1405.931c-6.543,0-12.871-2.739-17.363-7.69
						c-146.758-161.736-317.627-272.239-507.856-328.433c-8.423-2.49-14.751-9.475-16.392-18.103
						c-1.646-8.628,1.675-17.451,8.594-22.859c123.779-96.743,218.379-143.911,275.942-166.443
						c32.158-12.588,109.697-39.441,135.21-16.968c1.23,1.086,2.349,2.302,3.33,3.623
						c147.358,198.669,194.712,380.657,140.757,540.908c-2.651,7.881-9.282,13.767-17.427,15.469
						C2389.125,1405.77,2387.514,1405.931,2385.922,1405.931z M1917.431,1038.678c168.999,57.844,322.417,157.615,457.036,297.234
						c28.901-133.921-18.086-285.903-140.049-452.539C2209.159,882.904,2098.866,904.532,1917.431,1038.678z M2238.451,883.773
						L2238.451,883.773L2238.451,883.773z"/>
				</g>
			</g>
			<g>
				<g>
					<path style="fill-rule:evenodd;clip-rule:evenodd;fill:#FD73CB;" d="M1040.14,1264.219
						c231.474-240.109,507.208-312.407,827.201-216.899C1568.957,453.135,1293.214,525.433,1040.14,1264.219z"/>
				</g>
			</g>
			<g>
				<g>
					<path style="fill:#000071;" d="M1040.131,1287.667c-4.199,0-8.428-1.126-12.217-3.44c-9.38-5.732-13.516-17.207-9.956-27.605
						c141.367-412.688,288.731-618.628,450.508-629.595c139.375-9.451,276.626,124.595,419.829,409.771
						c4.199,8.362,3.027,18.418-2.983,25.586c-6.011,7.173-15.713,10.073-24.673,7.405c-309.439-92.351-579.8-21.46-803.618,210.705
						C1052.475,1285.211,1046.337,1287.667,1040.131,1287.667z M1481.767,673.473c-3.384,0-6.758,0.115-10.132,0.342
						c-127.451,8.64-253.901,178.74-376.401,506.021c209.038-179.59,452.905-236.387,726.777-169.148
						C1702.699,786.779,1588.407,673.473,1481.767,673.473z"/>
				</g>
			</g>
			<g style="opacity:0.73;">
				<g>
					<path style="fill-rule:evenodd;clip-rule:evenodd;fill:#FFFFFF;" d="M1069.36,1235.06
						c17.176-16.507,34.577-32.108,52.215-46.824l0.168-0.156l0.381-0.344c108.639-289.056,208.001-457.557,298.095-505.491
						c-66.646,26.324-126.328,73.839-179.08,142.488c-46.333,68.925-91.966,158.268-136.905,267.947
						c-16.495,46.92-31.749,97.62-45.74,152.124L1069.36,1235.06z"/>
				</g>
			</g>
			<g>
				<g>
					<path style="fill-rule:evenodd;clip-rule:evenodd;fill:#FC9B28;" d="M1642.32,1007.474
						c72.406,3.422,147.412,16.685,225.021,39.846c-169.777-338.086-332.231-460.286-487.337-366.815
						c105.183-32.99,192.639,75.984,262.339,326.932L1642.32,1007.474z"/>
				</g>
			</g>
			<g style="opacity:0.73;">
				<g>
					<path style="fill-rule:evenodd;clip-rule:evenodd;fill:#FFFFFF;" d="M1643.453,1007.533c16.6,0.811,33.322,2.135,50.21,3.972
						l0.024,0.012l0.215,0.012l0.811,0.059c-56.248-210.947-132.769-324.214-229.6-339.778
						c14.252,14.311,27.74,29.196,40.454,44.628c24.331,24.02,47.362,58.429,69.103,103.202
						c30.474,56.856,53.026,119.46,67.672,187.798L1643.453,1007.533z"/>
				</g>
			</g>
			<g>
				<g>
					<path style="fill:#000071;" d="M1867.343,1064.908c-1.68,0-3.369-0.242-5.029-0.735
						c-75.806-22.622-150.103-35.788-220.825-39.133c-6.328-0.298-12.012-3.979-14.868-9.636c-0.693-1.372-1.196-2.81-1.504-4.277
						c-47.358-170.107-102.661-273.384-164.375-306.936c-24.009-13.049-48.696-15.305-75.474-6.907
						c-8.491,2.668-17.646-1.443-21.299-9.558c-3.657-8.12-0.669-17.688,6.958-22.285c54.355-32.761,110.532-41.106,166.958-24.778
						c114.087,32.996,226.992,163.433,345.176,398.765c3.149,6.272,2.266,13.813-2.241,19.192
						C1877.426,1062.67,1872.46,1064.908,1867.343,1064.908z M1655.878,990.609c57.422,3.606,116.909,13.328,177.466,28.987
						c-105.527-201.013-208.12-317.061-305.229-345.146c-20.479-5.92-40.625-7.976-60.664-6.15c3.389,1.511,6.753,3.174,10.093,4.99
						C1547.47,711.307,1605.859,815.172,1655.878,990.609z"/>
				</g>
			</g>
			<g>
				<g>
					<path style="fill-rule:evenodd;clip-rule:evenodd;fill:#FFFFFF;" d="M2874.895,2785.932c5.474,43.676,7.799,77.74,6.976,102.2
						c260.323-144.169,294.971-374.915,82.296-677.363c-51.954-73.874-77.298-164.266-55.268-287.363
						c10.005-32.857,1.585-68.529-22.03-93.456c-23.615-24.929-58.798-35.232-92.134-27.003
						c-33.334,8.217-59.68,33.727-68.983,66.778c-65.095,160.234-19.834,314.971,135.773,464.198
						C3012.754,2486.442,3017.214,2637.101,2874.895,2785.932z"/>
				</g>
			</g>
			<g>
				<g>
					<path style="fill-rule:evenodd;clip-rule:evenodd;fill:#FC9B28;" d="M2912.94,2102.761
						c-13.847-51.38-16.424-110.214-4.042-179.354c10.005-32.857,1.585-68.529-22.03-93.456
						c-23.615-24.929-58.798-35.232-92.134-27.003c-33.334,8.217-59.68,33.727-68.983,66.778
						c-41.947,103.236-38.058,204.195,11.629,302.866c28.886,29.47,72.633,38.712,110.989,23.471
						C2886.714,2180.809,2912.176,2144.026,2912.94,2102.761"/>
				</g>
			</g>
			<g>
				<g>
					<path style="fill:#000071;" d="M2881.869,2908.649c-3.716,0-7.432-1.011-10.713-3.018c-6.304-3.857-10.044-10.806-9.795-18.193
						c0.786-23.262-1.509-56.553-6.821-98.95c-0.771-6.128,1.26-12.271,5.527-16.733
						c134.292-140.439,130.063-278.872-12.935-423.198c-161.079-154.565-208.447-317.905-140.806-485.53
						c11.567-39.534,43.457-70.129,83.496-80c40.42-9.976,83.311,2.598,111.938,32.815c28.335,29.907,38.672,72.83,27.129,112.31
						c-18.975,107.275-2.422,193.354,52.056,270.815c118.164,168.042,163.257,317.671,134.028,444.736
						c-24.277,105.537-99.36,193.813-223.164,262.378C2888.715,2907.794,2885.287,2908.649,2881.869,2908.649z M2896.43,2792.99
						c2.681,22.603,4.473,42.378,5.396,59.6c95.376-59.692,153.574-132.944,173.159-218.086
						c26.504-115.229-16.426-253.823-127.603-411.934c-60.542-86.079-79.736-185.122-58.682-302.776
						c0.142-0.798,0.332-1.587,0.566-2.363c7.837-25.728,1.211-53.84-17.29-73.367c-18.501-19.521-46.211-27.644-72.324-21.196
						c-26.118,6.438-46.865,26.523-54.15,52.417c-0.205,0.735-0.454,1.457-0.742,2.163
						c-62.178,153.057-19.341,297.524,130.967,441.67c0.122,0.122,0.244,0.239,0.366,0.361
						c79.043,79.717,120.327,160.879,122.705,241.226C3001.113,2638.932,2966.684,2717.037,2896.43,2792.99z"/>
				</g>
			</g>
			<g style="opacity:0.3;">
				<g>
					<path style="fill-rule:evenodd;clip-rule:evenodd;fill:#000071;" d="M2844.409,1810.707
						c-15.908-4.653-33.024-5.154-49.685-1.05c-33.324,8.217-59.67,33.727-68.974,66.778
						c-65.095,160.246-19.834,314.971,135.773,464.198c145.483,146.721,155.119,291.713,28.947,435.012
						c1.229,17.521,1.979,35.244,2.194,53.158c183.409-167.068,182.275-363.918-25.547-568.915
						c-124.095-122.415-156.215-340.53-22.672-449.159L2844.409,1810.707z"/>
				</g>
			</g>
			<g>
				<g>
					<path style="fill-rule:evenodd;clip-rule:evenodd;fill:#000071;" d="M1477.615,1711.182
						c39.092,12.035,65.711,38.233,59.487,58.512c-6.228,20.278-55.262,61.524-94.354,49.489
						c-39.109-12.048-53.48-72.78-47.235-93.058C1401.737,1705.864,1438.506,1699.151,1477.615,1711.182z"/>
				</g>
			</g>
			<g>
				<g>
					<path style="fill:#000071;" d="M1480.886,1803.828c-0.813,22.717,5.823,45.994,19.18,65.408
						c13.286,19.434,33.14,34.731,56.172,42.69c22.991,8.01,48.909,8.564,72.939,1.047c24.033-7.432,45.913-22.881,61.272-43.838
						c2.629-3.606,7.683-4.399,11.292-1.77c3.391,2.471,4.265,7.136,2.175,10.679c-15.063,25.193-38.628,45.732-66.509,57.297
						c-27.81,11.67-59.824,14.277-89.917,6.868c-30.095-7.3-58.157-24.626-78.499-49.065c-20.432-24.338-33.049-55.737-34.99-88.289
						l-0.029-0.469c-0.771-12.947,9.099-24.067,22.046-24.839s24.07,9.097,24.841,22.046
						C1480.903,1802.332,1480.908,1803.103,1480.886,1803.828z"/>
				</g>
			</g>
			<g>
				<g>
					<path style="fill:#000071;" d="M1478.55,1814.556c-12.063,22.869-32.173,41.025-55.452,50.603
						c-23.24,9.724-49.6,10.894-73.032,3.672c-23.484-7.104-44.004-22.532-57.119-42.461
						c-13.242-19.873-19.065-44.148-16.577-67.217c0.706-6.538,6.577-11.267,13.113-10.562c6.135,0.662,10.674,5.869,10.632,11.909
						l-0.002,0.156c-0.188,17.8,5.984,35.127,16.802,48.401c10.784,13.333,25.981,22.373,42.131,25.591
						c16.16,3.269,32.93,0.669,46.848-6.836c13.96-7.471,24.746-19.646,30.442-33.682c4.88-12.021,18.582-17.81,30.603-12.93
						s17.81,18.582,12.93,30.603c-0.293,0.723-0.615,1.421-0.969,2.095L1478.55,1814.556z"/>
				</g>
			</g>
			<g>
				<g>
					<path style="fill-rule:evenodd;clip-rule:evenodd;fill:#FD7373;" d="M1368.494,1854.245
						c-59.084,109.594-47.992,192.292-4.46,212.783c85.312,40.156,67.147-102.354,136.286-168.714
						c-25.977-23.568-42.066-57.237-42.877-93.971C1440.961,1838.395,1405.145,1857.87,1368.494,1854.245z"/>
				</g>
			</g>
			<g>
				<g>
					<path style="fill:#000071;" d="M1390.639,2091.666c-10.425,0-21.719-2.9-34.097-8.726
						c-18.565-8.74-32.368-25.459-39.907-48.359c-15.752-47.813-2.49-116.584,36.382-188.682c3.359-6.245,10.078-9.888,17.212-9.155
						c29.609,2.903,58.364-13.167,71.387-40.066c3.54-7.314,11.626-11.243,19.57-9.521c7.939,1.731,13.662,8.674,13.843,16.797
						c0.684,30.911,14.209,60.557,37.109,81.336c3.613,3.276,5.698,7.903,5.767,12.778s-1.89,9.558-5.405,12.934
						c-24.971,23.97-37.9,61.208-49.312,94.063c-13.203,38.032-24.604,70.879-52.456,82.598
						C1404.389,2090.333,1397.714,2091.666,1390.639,2091.666z M1378.925,1872.243c-29.99,59.177-40.791,115.188-28.882,151.338
						c3.096,9.409,9.341,21.821,21.479,27.534c11.084,5.22,19.692,6.597,25.562,4.131c13.408-5.645,22.866-32.881,32.876-61.716
						c10.947-31.521,23.145-66.663,46.172-94.861c-13.237-15.296-23.198-33.164-29.307-52.334
						C1428.115,1862.406,1404.091,1871.818,1378.925,1872.243z"/>
				</g>
			</g>
			<g>
				<g>
					<path style="fill:#000071;" d="M1474.756,1869.304c-10.5,3.555-20.474,8.381-29.448,14.702
						c-8.984,6.301-16.968,14.082-23.65,23.101c-13.464,18.044-21.323,40.767-25.32,64.282l-0.01,0.059
						c-0.581,3.411-3.813,5.706-7.224,5.125c-3.176-0.54-5.383-3.381-5.205-6.523c1.401-25.11,6.792-51.082,20.234-74.348
						c6.665-11.575,15.31-22.266,25.496-31.306c10.166-9.075,21.797-16.445,33.999-22.205l0.156-0.073
						c7.334-3.462,16.084-0.322,19.546,7.012c3.459,7.334,0.32,16.084-7.014,19.546
						C1475.808,1868.914,1475.278,1869.126,1474.756,1869.304z"/>
				</g>
			</g>
			<g>
				<g>
					<path style="fill:#000071;" d="M2507.727,3236.323c-1.331,12.39-1.191,24.692,1.311,35.747
						c2.461,11.079,7.341,20.569,14.05,27.817c6.707,7.246,6.267,18.555-0.979,25.261c-7.244,6.707-18.555,6.27-25.261-0.977
						c-1.235-1.333-2.229-2.805-2.981-4.363l-0.61-1.287c-6.956-14.563-9.348-30.53-8.264-45.063
						c1.035-14.626,5.044-28.035,10.171-40.459c1.382-3.345,5.212-4.939,8.56-3.557c2.754,1.135,4.321,3.933,4.021,6.75
						L2507.727,3236.323z"/>
				</g>
			</g>
			<g>
				<g>
					<path style="fill:#000071;" d="M2402.405,3234.292c-2.712,12.053-4.551,24.351-3.647,35.293
						c0.432,5.415,1.66,10.386,3.599,13.992c1.929,3.679,4.514,5.515,7.148,6.758c9.136,4.304,13.052,15.203,8.745,24.338
						s-15.203,13.052-24.338,8.745c-2.39-1.125-4.421-2.703-6.042-4.583l-2.458-2.878c-6.377-7.454-10.303-16.909-11.177-25.454
						c-0.984-8.601,0.122-16.345,1.904-23.359c3.687-14.021,10.002-25.708,16.729-36.812c1.494-2.466,4.707-3.254,7.173-1.76
						c1.97,1.191,2.869,3.477,2.393,5.605L2402.405,3234.292z"/>
				</g>
			</g>
			<g>
				<g>
					<path style="fill:#000071;" d="M2046.672,3252.244c-3.484,12.678-5.82,25.518-5.723,37.625
						c0.044,12.104,2.869,23.142,8.186,31.323c5.381,8.284,3.03,19.358-5.251,24.741c-8.284,5.381-19.36,3.03-24.741-5.251
						c-0.994-1.528-1.724-3.154-2.2-4.819l-0.408-1.458c-2.356-8.372-3.237-16.868-2.974-24.956
						c0.259-8.103,1.616-15.811,3.621-23.071c4.053-14.529,10.515-27.354,17.703-39.309c1.846-3.071,5.833-4.065,8.904-2.219
						c2.549,1.533,3.667,4.539,2.917,7.273L2046.672,3252.244z"/>
				</g>
			</g>
			<g>
				<g>
					<path style="fill:#000071;" d="M1920.12,3247.183c-2.832,12.292-4.863,24.644-5.208,36.526
						c-0.376,11.833,1.172,23.23,5.032,32.031c3.975,9.06-0.149,19.626-9.209,23.601s-19.626-0.149-23.601-9.209
						c-0.791-1.804-1.262-3.667-1.436-5.527l-0.115-1.348c-1.45-16.25,1.631-30.862,6.069-44.026
						c4.519-13.196,10.564-25.183,17.153-36.597c1.699-2.944,5.466-3.955,8.413-2.253c2.4,1.384,3.513,4.143,2.925,6.709
						L1920.12,3247.183z"/>
				</g>
			</g>
			<g>
				<g>
					<path style="fill:#000071;" d="M1700.134,3244.602c-8.623,9.424-14.424,20.413-15.212,30.925
						c-0.837,10.527,2.659,20.554,8.281,30.11c5,8.496,2.163,19.436-6.331,24.434c-8.496,4.998-19.436,2.163-24.434-6.333
						c-0.923-1.57-1.58-3.223-1.982-4.905l-0.203-0.889c-1.819-7.781-2.917-15.947-2.705-24.27c0.195-8.301,1.79-16.741,4.958-24.39
						c3.176-7.659,7.815-14.377,13.123-19.893c5.317-5.54,11.262-9.961,17.388-13.65c2.712-1.633,6.235-0.757,7.869,1.956
						c1.34,2.224,0.991,4.998-0.676,6.824L1700.134,3244.602z"/>
				</g>
			</g>
			<g>
				<g>
					<path style="fill:#000071;" d="M1595.845,3235.75c-3.074,11.025-4.797,22.153-4.443,32.639
						c0.322,10.496,2.783,20.173,7.08,28.438c4.57,8.782,1.155,19.602-7.627,24.17c-8.782,4.57-19.602,1.155-24.17-7.627
						c-0.92-1.768-1.516-3.621-1.812-5.486l-0.205-1.375c-2.205-14.419-0.82-28.806,2.971-41.599
						c3.779-12.856,9.729-24.272,16.56-34.602c1.978-2.993,6.011-3.816,9.004-1.836c2.407,1.594,3.411,4.517,2.678,7.156
						L1595.845,3235.75z"/>
				</g>
			</g>
			<g style="opacity:0.3;">
				<g>
					<path style="fill-rule:evenodd;clip-rule:evenodd;fill:#000071;" d="M1484.769,2492.22
						c276.483,83.224,575.749,39.252,816.656-120.161c-16.292-3.661-32.894-7.157-49.794-10.496
						c-112.696,46.668-199.75,75.056-261.171,85.144c465.356-132.886,634.845-522.256,508.483-1168.11
						c-57.928-255.9-129.022-393.295-247.324-407.536c143.179,193.033,188.978,366.185,137.359,519.455
						c-13.488-14.873-27.181-29.328-41.075-43.366c-79.934-97.332-194.571-178.125-343.955-242.351
						c251.987,169.242,388.5,352.734,409.538,550.441c3.341,205.758-79.467,433.571-274.039,572.874
						c-352.589,252.429-860.652,178.995-1194.47-29.445c104.657,134.161,280.313,231.96,540.852,256.042
						C1485.328,2467.364,1484.983,2479.865,1484.769,2492.22"/>
				</g>
			</g>
			<g style="opacity:0.3;">
				<g>
					<path style="fill-rule:evenodd;clip-rule:evenodd;fill:#000071;" d="M1908.774,3135.594
						c8.134-43.116,9.768-96.416,4.866-159.901c-3.818-49.448-11.593-105.075-23.329-166.89
						c-10.96-45.31-25.51-87.029-43.688-125.148c5.117,144.205-47.23,203.243-157.039,177.1
						c-64.892-43.676-107.984-111.861-129.308-204.53c-19.25-91.526,13.143-134.76,97.19-129.691
						c-37.784-4.092-75.449-10.401-112.816-18.977c-21.087-4.829-42.088-10.386-62.948-16.661
						c-1.087,63.021,1.585,122.034,8.026,177.029l7.264-2.804c51.26,243.186,175.429,397.313,372.494,462.41
						c7.965,5.296,15.42,10.459,22.35,15.503C1897.157,3140.377,1902.785,3137.895,1908.774,3135.594"/>
				</g>
			</g>
			<g style="opacity:0.3;">
				<g>
					<path style="fill-rule:evenodd;clip-rule:evenodd;fill:#000071;" d="M2496.521,2695.714
						c-99.018,33.967-166.748,25.667-203.159-24.892c-62.091,424.59-166.748,627.786-321.115,607.976
						c-92.921-11.927-127.603-45.383-80.41-135.764c-91.25,85.933-83.392,147.869,23.578,185.82
						c154.953,27.55,250.199-7.814,285.763-106.101c28.708,23.652,61.341,29.055,97.931,16.16
						c-2.814-83.473,39.037-133.446,125.554-149.928C2329.439,2927.366,2353.388,2796.268,2496.521,2695.714"/>
				</g>
			</g>
			<g style="opacity:0.3;">
				<g>
					<path style="fill-rule:evenodd;clip-rule:evenodd;fill:#000071;" d="M2508.172,3315.913
						c179.591,3.674,330.179-141.546,375.63-315.914c45.454-174.381-24.174-358.432-173.653-459.081
						c213.8,269.757,107.449,655.443-115.639,696.53c-163.421,30.09-262.507-5.569-287.47-60.171
						C2289.104,3290.593,2356.143,3336.809,2508.172,3315.913"/>
				</g>
			</g>
			<g style="opacity:0.3;">
				<g>
					<path style="fill-rule:evenodd;clip-rule:evenodd;fill:#000071;" d="M1495.882,2712.433
						c51.465,249.627,165.949,409.385,343.467,479.286c-12.071,22.853-13.813,52.252-5.237,88.221
						c-11.021,7.504-33.002,16.102-65.989,25.811c-140.891,38.725-227.551,11.485-259.991-81.709
						c175.751,97.618,241.515,16.111,194.405-27.958c-132.232-123.668-210.839-221.682-242.29-388.212
						C1454.891,2740.916,1466.771,2709.094,1495.882,2712.433"/>
				</g>
			</g>
			<g style="opacity:0.3;">
				<g>
					<path style="fill-rule:evenodd;clip-rule:evenodd;fill:#000071;" d="M1474.463,1808.797
						c-8.229,58.143,28.886,113.065,85.896,127.115c57.01,14.05,115.402-17.34,135.129-72.657
						C1597.057,1925,1523.386,1906.847,1474.463,1808.797"/>
				</g>
			</g>
			<g style="opacity:0.3;">
				<g>
					<path style="fill-rule:evenodd;clip-rule:evenodd;fill:#000071;" d="M1298.008,1754.794
						c-10.997,36.365,7.083,75.185,41.993,90.166c34.922,14.992,75.508,1.37,94.306-31.654
						C1380.79,1827.844,1324.33,1803.596,1298.008,1754.794"/>
				</g>
			</g>
			<g style="opacity:0.3;">
				<g>
					<path style="fill-rule:evenodd;clip-rule:evenodd;fill:#000071;" d="M2385.911,1382.484
						c-67.396-79.408-163.465-158.089-288.171-236.064c247.06,129.25,286.503,34.289,118.312-284.905
						C2377.86,1009.514,2434.477,1183.177,2385.911,1382.484"/>
				</g>
			</g>
			<g style="opacity:0.3;">
				<g>
					<path style="fill-rule:evenodd;clip-rule:evenodd;fill:#000071;" d="M1642.342,1014.146
						c-139.398-8.217-276.066,25.083-410.015,99.922c298.347-133.255,347.448-275.507,147.283-426.747
						C1509.861,679.829,1597.428,788.768,1642.342,1014.146"/>
				</g>
			</g>
			<g>
				<g>
					<path style="fill:#000071;" d="M1040.131,1287.667c-4.199,0-8.428-1.126-12.217-3.44c-9.38-5.732-13.516-17.207-9.956-27.605
						c141.367-412.688,288.731-618.628,450.508-629.595c139.375-9.451,276.626,124.595,419.829,409.771
						c4.199,8.362,3.027,18.418-2.983,25.586c-6.011,7.173-15.713,10.073-24.673,7.405c-309.439-92.351-579.8-21.46-803.618,210.705
						C1052.475,1285.211,1046.337,1287.667,1040.131,1287.667z M1481.767,673.473c-3.384,0-6.758,0.115-10.132,0.342
						c-127.451,8.64-253.901,178.74-376.401,506.021c209.038-179.59,452.905-236.387,726.777-169.148
						C1702.699,786.779,1588.407,673.473,1481.767,673.473z"/>
				</g>
			</g>
			<g>
				<g>
					<path style="fill:#FFFFFF;" d="M1500.297,1745.593c-1.877,6.373-19.855,6.692-40.155,0.714
						c-20.3-5.978-35.235-15.991-33.358-22.363c1.877-6.373,19.854-6.692,40.155-0.714
						C1487.238,1729.208,1502.173,1739.22,1500.297,1745.593z"/>
				</g>
			</g>
			<g>
				<g>
					<g>
						<g>
							<g>
								
									<ellipse transform="matrix(0.3432 -0.9393 0.9393 0.3432 -675.8801 2156.5552)" style="fill:#000071;" cx="1204.066" cy="1561.553" rx="159.542" ry="103.057"/>
							</g>
						</g>
					</g>
				</g>
				<g>
					<g>
						<g>
							<g>
								<path style="fill:#FFFFFF;" d="M1251.371,1448.688c-19.294,1.215-35.761,26.937-36.778,57.451
									c-1.018,30.514,13.797,54.264,33.092,53.048c19.293-1.215,35.76-26.937,36.777-57.45
									C1285.481,1471.223,1270.666,1447.472,1251.371,1448.688z"/>
							</g>
						</g>
					</g>
				</g>
				<g>
					<g>
						<g>
							<g>
								<path style="fill:#B199C5;" d="M1136.507,1606.982c-10.044,3.382-16.099,18.724-13.527,34.265
									c2.571,15.543,12.798,25.401,22.84,22.018c10.043-3.38,16.099-18.723,13.526-34.264
									C1156.776,1613.46,1146.548,1603.601,1136.507,1606.982z"/>
							</g>
						</g>
					</g>
				</g>
			</g>
			<g>
				<g>
					<path style="fill:#000072;" d="M1944.414,1835.52c-0.2,0.225-0.325-0.52-0.52-1.157l-0.591-2.141l-1.248-4.551l-2.7-9.255
						c-1.887-6.167-3.882-12.271-5.979-18.267c-4.219-11.98-9.06-23.499-14.546-33.979c-5.62-10.366-11.98-19.778-19.331-26.052
						c-3.247-2.832-8.191-6.404-12.776-9.268c-4.639-2.915-9.441-5.273-14.263-7.239c-19.275-7.959-39.749-7.126-58.987,2.986
						c-9.563,5.029-18.828,11.841-27.688,19.978c-8.901,8.113-17.114,17.625-25.796,27.595l-0.251,0.288
						c-3.809,4.377-10.444,4.836-14.819,1.025c-3.074-2.673-4.209-6.755-3.296-10.457c3.501-14.087,9.492-27.747,17.988-40.305
						c8.328-12.651,19.46-24.092,33-33.044c13.574-8.835,29.749-15.054,46.758-16.792c16.995-1.86,34.434,0.962,49.746,7.207
						c7.688,3.093,14.902,6.987,21.636,11.35c6.638,4.602,12.703,8.958,19.128,15.549c11.97,12.676,19.741,26.851,25.115,41.057
						c2.771,7.085,4.873,14.258,6.526,21.436c1.746,7.151,2.883,14.355,3.755,21.523c0.835,7.178,1.255,14.363,1.292,21.555
						c-0.02,3.606-0.049,7.2-0.317,10.847c-0.134,1.826-0.239,3.65-0.471,5.54l-0.376,2.917l-0.596,3.901
						c-0.62,5.63-5.688,9.692-11.321,9.072S1943.794,1841.152,1944.414,1835.52z"/>
				</g>
			</g>
		</g>
		<g>
			<g>
				<g>
					<path style="fill:#FF0068;" d="M2787.454,1305.468c-25.048-36.239-38.891-80.654-36.703-128.057
						c5.313-115.056,102.89-204.021,217.946-198.708c115.056,5.313,204.021,102.891,198.708,217.947
						c-5.313,115.056-102.891,204.02-217.947,198.708c-32.003-1.478-61.975-10.113-88.474-24.257l-95.143,27.028L2787.454,1305.468z
						"/>
				</g>
			</g>
			<g style="opacity:0.5;">
				<g>
					<g>
						<path style="fill:#FFFFFF;" d="M2966.077,1018.766c-107.49-4.714-199.512,72.812-215.285,176.84
							c-0.456-7.338-0.573-14.762-0.244-22.272c5.047-115.068,102.418-204.258,217.487-199.211
							c115.068,5.047,204.258,102.419,199.211,217.487c-0.331,7.543-1.081,14.967-2.184,22.269
							C3158.507,1108.821,3073.602,1023.482,2966.077,1018.766z"/>
					</g>
				</g>
			</g>
			<g>
				<g>
					<path style="fill:#000071;" d="M2765.947,1418.483c-5.029,0-9.946-1.909-13.696-5.466c-5.107-4.849-7.271-12.039-5.688-18.904
						l19.473-84.348c-25.361-39.67-37.637-85.369-35.562-132.727c5.518-125.845,112.148-223.721,238.237-218.218
						c60.957,2.673,117.231,28.926,158.442,73.923c41.216,44.997,62.441,103.35,59.766,164.309
						c-5.522,125.842-112.188,223.779-238.232,218.215c-31.494-1.382-61.631-8.997-89.692-22.649l-87.568,25.093
						C2769.618,1418.229,2767.778,1418.483,2765.947,1418.483z M2861.03,1351.444c3.228,0,6.431,0.786,9.331,2.324
						c24.844,13.191,51.782,20.508,80.073,21.748c103.701,4.526,192.178-76.282,196.738-180.207
						c2.207-50.342-15.322-98.533-49.355-135.691c-34.038-37.161-80.508-58.84-130.854-61.047
						c-103.716-4.529-192.178,76.282-196.743,180.207c-1.816,41.584,9.756,81.609,33.467,115.75
						c3.203,4.609,4.307,10.357,3.047,15.825l-13.809,59.807l62.627-17.944C2857.348,1351.7,2859.189,1351.444,2861.03,1351.444z"/>
				</g>
			</g>
			<g style="opacity:0.25;">
				<g>
					<path style="fill:#000071;" d="M2786.061,1303.946c59.849,44.894,139.645,61.417,216.521,37.433
						c85.256-26.599,145.145-96.213,163.391-177.513c1.169,10.57,1.554,21.361,1.073,32.316
						c-5.047,115.068-102.419,204.258-217.487,199.211c-32.006-1.404-61.998-9.969-88.529-24.053l-95.081,27.248l21.397-92.71
						C2786.905,1305.242,2786.494,1304.586,2786.061,1303.946z"/>
				</g>
			</g>
			<g>
				<g>
					<path style="fill:#FFFFFF;" d="M2892.204,1128.496L2892.204,1128.496c18.048-18.048,47.31-14.814,65.358,3.234l2.809,2.809
						l2.809-2.809c18.048-18.048,47.31-21.282,65.358-3.234l0,0c18.048,18.048,18.048,47.31,0,65.358l-2.809,2.809l-56.743,56.743
						c-4.758,4.758-12.472,4.758-17.23,0l-56.743-56.743l-2.809-2.809C2874.156,1175.806,2874.156,1146.544,2892.204,1128.496z"/>
				</g>
			</g>
		</g>
	</g>
</g>
</svg>
